<?xml version="1.0" encoding="UTF-8"?>
<svg width="328px" height="328px" viewBox="0 0 328 328" version="1.1" xmlns="http://www.w3.org/2000/svg" xmlns:xlink="http://www.w3.org/1999/xlink">
    <defs>
        <path d="M52.2950135,159.895635 C79.6243715,169.458791 116.943852,177.434573 158.471522,181.703826 C197.829337,185.74916 234.160286,185.762971 262.287307,182.516485 C268.336568,181.818992 272.300823,188.609697 268.886862,193.649816 C236.659429,241.227916 175.145862,262.770735 118.664642,242.228014 C82.8960582,229.218388 56.4488062,201.976647 43.3513917,169.233904 C41.0907714,163.582222 46.5443682,157.883424 52.2950135,159.895635 Z M204.825879,7.77504321 C254.733103,25.9271185 286.533939,71.7756803 289.184626,121.628214 C289.584583,121.771696 289.983944,121.915596 290.382568,122.059895 L291.576085,122.493971 C310.63243,129.457732 327.663105,137.297504 326.980102,143.927647 C326.639924,147.229119 323.480726,150.1116 318.018743,152.550667 C296.111287,162.339816 229.629337,164.299866 160.422072,157.184623 C90.686839,150.01773 25.6082533,134.61551 6.59565353,120.479086 C2.03415459,117.087439 -0.299265385,113.734637 0.0307772366,110.533681 C0.621049275,104.789156 15.3752003,100.796475 31.5318979,97.8346592 L32.5990717,97.6408608 C32.7772275,97.6088075 32.9555189,97.5768768 33.1339288,97.5450677 L34.2056758,97.3556647 L34.2056758,97.3556647 L35.8168535,97.0769324 C35.9960257,97.0463156 36.1752318,97.0158155 36.3544549,96.9854313 C37.4153385,92.8014761 38.6962685,88.628986 40.2057861,84.4845646 C64.466771,17.8753759 138.169671,-16.4683833 204.825879,7.77504321 Z" ></path>
    </defs>
    <g  stroke="none" stroke-width="1" fill="none" fill-rule="evenodd">
        <g  transform="translate(-0.000004, 38.000090)">
            <mask  fill="white">
                <use xlink:href="#path-1"></use>
            </mask>
            <use  fill="#542DE0" fill-rule="nonzero" xlink:href="#path-1"></use>
            <g mask="url(#mask-2)" >
                <g transform="translate(-49.580813, -16.775262)">
                    <path d="M343.62358,26.7774067 L313.426352,67.2699232 C297.977651,78.317988 282.817428,94.5737 267.945684,116.037059 C240.129854,156.181725 224.191458,209.729079 220.130499,276.679123 L166.062992,281.775172 L47.9634501,224.79551 L51.9532765,41.2043722 L343.62358,26.7774067 Z" fill="#0091FF"></path>
                    <path d="M309.732061,26.7751722 L305.732061,51.9203372 C299.180048,55.3273505 292.536594,59.4976141 285.801699,64.4311278 L284.303551,65.5400279 C274.055916,73.203365 263.597428,82.6266795 252.928086,93.8099715 L251.365214,95.4591146 C251.104484,95.7360658 250.843629,96.0140639 250.582649,96.293109 L249.015261,97.9799435 C246.138957,101.095507 243.247475,104.337755 240.340816,107.706689 C199.940816,154.531893 175.181542,207.554681 166.062992,266.775054 L54.9374472,212.167599 L51.9532729,41.2043722 L309.732061,26.7751722 Z" fill="#41B89D"></path>
                    <path d="M309.732061,26.7751722 L292.224127,42.2043722 C291.764249,42.3722921 291.298667,42.5474179 290.82738,42.7297498 L289.877201,43.1040214 L289.877201,43.1040214 L288.911811,43.497509 L288.911811,43.497509 L287.931209,43.9102124 L287.931209,43.9102124 L286.935395,44.3421318 L286.935395,44.3421318 L285.92437,44.7932671 C285.754599,44.8700576 285.584193,44.9476488 285.413154,45.0260407 L284.379311,45.5059998 C284.205737,45.5875943 284.031528,45.6699895 283.856686,45.7531854 L282.800026,46.2619684 L282.800026,46.2619684 L281.728155,46.7899673 C281.548243,46.8795684 281.367696,46.9699702 281.186516,47.0611727 L280.091827,47.6179955 L280.091827,47.6179955 L278.981927,48.1940342 C278.795677,48.291642 278.608792,48.3900504 278.421273,48.4892595 L277.288556,49.0941221 L277.288556,49.0941221 L276.140628,49.7182005 L276.140628,49.7182005 L274.977487,50.3614949 L274.977487,50.3614949 L273.799136,51.0240052 L273.799136,51.0240052 L272.605573,51.7057314 L272.605573,51.7057314 L271.396798,52.4066735 L271.396798,52.4066735 L270.172812,53.1268316 L270.172812,53.1268316 L268.933614,53.8662055 L268.933614,53.8662055 L267.679205,54.6247953 L267.679205,54.6247953 L266.409584,55.4026011 L266.409584,55.4026011 L265.124752,56.1996228 L265.124752,56.1996228 L263.824708,57.0158603 L263.824708,57.0158603 L261.846121,58.2762465 L261.846121,58.2762465 L260.508048,59.1405239 L260.508048,59.1405239 L259.154764,60.0240171 L259.154764,60.0240171 L257.786269,60.9267263 L257.786269,60.9267263 L256.402561,61.8486514 L256.402561,61.8486514 L255.003643,62.7897924 L255.003643,62.7897924 L253.589513,63.7501493 L253.589513,63.7501493 L251.439796,65.2267145 L251.439796,65.2267145 L249.987637,66.2351112 L249.987637,66.2351112 L248.520267,67.2627238 L248.520267,67.2627238 L247.037685,68.3095523 C246.78932,68.485625 246.540321,68.6624984 246.290689,68.8401725 L244.78529,69.9158248 L244.78529,69.9158248 L243.264679,71.0106931 L243.264679,71.0106931 L240.955242,72.6890254 L240.955242,72.6890254 L239.396602,73.8319334 L239.396602,73.8319334 L237.822751,74.9940574 L237.822751,74.9940574 L236.233688,76.1753973 L236.233688,76.1753973 L234.629414,77.375953 L234.629414,77.375953 L232.194481,79.2128166 L232.194481,79.2128166 L229.725323,81.0929159 C229.44907,81.3042178 229.172184,81.5163203 228.894664,81.7292236 L227.221938,83.016251 L227.221938,83.016251 C177.358041,121.493947 142.040879,174.413548 121.270452,241.775054 L54.9374472,212.167599 L51.9532729,41.2043722 L309.732061,26.7751722 Z" fill="#82D12F"></path>
                    <path d="M313.496994,18.1860431 L297.580816,24.7751722 C268.56462,36.939879 237.859623,52.746601 205.465826,72.1953383 C165.759159,96.0346096 127.833256,137.935916 91.688116,197.899257 L76.5752443,171.092555 L47.6971988,28.5622029 L313.496994,18.1860431 Z" fill="#F0C80E"></path>
                    <path d="M390.580816,14.7751722 C310.290602,7.17335887 236.410418,25.0882618 168.940262,68.5198811 C101.470106,111.9515 55.0302904,163.703264 29.6208162,223.775172 L-1.13686838e-13,31.0912755 L390.580816,14.7751722 Z" fill="#FA6400"></path>
                    <path d="M284.162534,8.18744917 L254.388031,20.8510785 L251.668067,21.2203861 C248.960671,21.5951756 246.290981,21.9864104 243.658997,22.3940906 L241.03958,22.8072526 C211.060832,27.6216565 186.068636,34.6109635 166.062992,43.7751737 C117.729709,65.9157443 90.280761,86.7084523 83.7161493,106.153298 L55.2115897,1.49213975e-13 L284.162534,8.18744917 Z" fill="#C72222"></path>
                </g>
            </g>
        </g>
    </g>
</svg>