<?xml version="1.0" standalone="no"?>
<!DOCTYPE svg PUBLIC "-//W3C//DTD SVG 20010904//EN"
 "http://www.w3.org/TR/2001/REC-SVG-20010904/DTD/svg10.dtd">
<svg version="1.0" xmlns="http://www.w3.org/2000/svg"
 width="256.000000pt" height="256.000000pt" viewBox="0 0 256.000000 256.000000"
 preserveAspectRatio="xMidYMid meet">
<metadata>
Created by potrace 1.14, written by Peter Selinger 2001-2017
</metadata>
<g transform="translate(0.000000,256.000000) scale(0.100000,-0.100000)"
fill="#000000" stroke="none">
<path d="M287 2475 c-81 -46 -155 -86 -166 -90 -42 -13 -41 -4 -39 -1090 l3
-1040 130 -98 c167 -125 178 -132 210 -115 14 7 298 177 631 378 334 201 630
379 659 395 298 172 685 413 689 430 3 11 6 104 6 206 0 165 -2 188 -18 202
-9 8 -78 43 -152 77 -74 35 -191 89 -259 121 -67 33 -124 59 -126 59 -2 0 -54
24 -117 54 -129 62 -367 173 -633 296 -33 16 -109 51 -170 80 -60 29 -135 63
-165 77 -30 14 -98 46 -150 70 -122 58 -141 65 -165 69 -11 2 -85 -34 -168
-81z m698 -873 c66 -27 189 -77 273 -112 84 -34 151 -64 150 -65 -10 -7 -597
-364 -614 -373 l-21 -11 1 324 0 323 46 -18 c25 -10 99 -40 165 -68z"/>
</g>
</svg>
